/* XPM */
static char *_1510_d052fb34eed568ffabc930dfa3de490bb6584c09a1f94b2553ecd64bbba75851[] = {
/* columns rows colors chars-per-pixel */
"32 32 52 1 ",
"  c #FD3C5B",
". c #FD3F5A",
"X c #FD4857",
"o c #FD4957",
"O c #FD4B56",
"+ c #FD4E55",
"@ c #FD4D56",
"# c #FD4E56",
"$ c #FD4159",
"% c #FD4359",
"& c #FD4458",
"* c #FD4459",
"= c #FD4658",
"- c #FD5553",
"; c #FD5753",
": c #FD5055",
"> c #FD5254",
", c #FD5354",
"< c #FD5852",
"1 c #FD5853",
"2 c #FD5A52",
"3 c #FD5C51",
"4 c #FD5D51",
"5 c #FD5F50",
"6 c #FD624F",
"7 c #FD644F",
"8 c #FD664E",
"9 c #FD684D",
"0 c #FD694D",
"q c #FD6B4C",
"w c #FD6B4D",
"e c #FD6C4C",
"r c #FD6E4C",
"t c #FD7D47",
"y c #FD7F46",
"u c #FD7F47",
"i c #FD704B",
"p c #FD714B",
"a c #FD734A",
"s c #FD7549",
"d c #FD7649",
"f c #FD754A",
"g c #FD7849",
"h c #FD7A48",
"j c #FD6150",
"k c #FD6250",
"l c #FD8246",
"z c #FD8445",
"x c #FD8545",
"c c #FD8744",
"v c #FD8944",
"b c None",
/* pixels */
"bbbb=bbbbbbbbbbbbbbbbbbbbbbubbbb",
"bb$*=oObbbbbbbbbbbbbbbbbbhtulzbb",
"b.$%=oO#bbbbbbbbbbbbbbbbghtulzcb",
" .$bbbO#:bbbbbbbbbbbbbbsghbbbxcv",
" .bbbbb+:>bbbbbbbbbbbbafgbbbbbcv",
" .bbbbbb:,-bbbbbbbbbbpafbbbbbbcv",
" .$bbbbb:,-bbbbbbbbbbiafbbbbbxcv",
"b.$bbbbbb,-;bbbbbbbbriabbbbbbzcb",
"b.$%bbbbbb-12bbbbbberibbbbbblzcb",
"bb$*=bbbbbb12bbbbbbwrbbbbbbylzbb",
"bbb*=Xbbbbb<24bbbb0wrbbbbbtulbbb",
"bbb&=obbbbbb245bb80wbbbbbbtulbbb",
"bbbb=oObbbbbb45j780bbbbbbhtubbbb",
"bbbbboO@bbbbbb5k78bbbbbbghtbbbbb",
"bbbbbbO#:bbbbb5k78bbbbbdghbbbbbb",
"bbb&=oO#:bbbbbb67bbbbbbfghtulbbb",
"bb$*=oO#:>bbbbbbbbbbbbafghtulzbb",
"b.$%bbb#:,-bbbbbbbbbbpafgbbblzcb",
" .$bbbb#:,-bbbbbbbbbbiafgbbbbzcv",
" .bbbbb#:,-1bbbbbbbbriafgbbbbbcv",
" .bbbbb#:b-12bbbbbbqribfgbbbbbcv",
" .bbbbb#:bb<23bbbb0wrbbfgbbbbbcv",
" .bbbbb#:bbb24bbbb0wbbbfgbbbbbcv",
" .bbbbb#:bbb245k780wbbbfgbbbbbcv",
" .bbbbb#:bbbb45k789bbbbfgbbbbbcv",
" .bbbbb#:bbbbbbbbbbbbbbfgbbbbbcv",
" .bbbbb#:bbbbbbbbbbbbbbfgbbbbbcv",
" .bbbbb#:bbbbbbbbbbbbbbfgbbbbbcv",
" .$bbbO#:bbbbbbbbbbbbbbdghbbbxcv",
"b.$%=oO#bbbbbbbbbbbbbbbbghtulzcb",
"bb$*=oObbbbbbbbbbbbbbbbbbhtulzbb",
"bbbb=bbbbbbbbbbbbbbbbbbbbbbubbbb"
};
