/* XPM */
static char *_887_f9ce54e07e2910ed4ba88b3e068a7b4199dcb695b99d80c7a2511202daf89f36[] = {
/* columns rows colors chars-per-pixel */
"64 64 88 1 ",
"  c #FD3D5A",
". c #FD3C5B",
"X c #FD3D5B",
"o c #FD3E5A",
"O c #FD3F5A",
"+ c #FD4757",
"@ c #FD4857",
"# c #FD4957",
"$ c #FD4A56",
"% c #FD4B56",
"& c #FD4E55",
"* c #FD4F55",
"= c #FD4C56",
"- c #FD4D56",
"; c #FD4059",
": c #FD4159",
"> c #FD4259",
", c #FD4359",
"< c #FD4458",
"1 c #FD4558",
"2 c #FD4658",
"3 c #FD4758",
"4 c #FD5453",
"5 c #FD5553",
"6 c #FD5653",
"7 c #FD5753",
"8 c #FD5154",
"9 c #FD5055",
"0 c #FD5155",
"q c #FD5254",
"w c #FD5354",
"e c #FD5B51",
"r c #FD5852",
"t c #FD5952",
"y c #FD5A52",
"u c #FD5B52",
"i c #FD5C51",
"p c #FD5D51",
"a c #FD5E50",
"s c #FD5F50",
"d c #FD5E51",
"f c #FD634F",
"g c #FD654E",
"h c #FD644F",
"j c #FD654F",
"k c #FD664E",
"l c #FD674E",
"z c #FD6F4B",
"x c #FD684D",
"c c #FD694D",
"v c #FD6A4D",
"b c #FD6B4D",
"n c #FD6C4C",
"m c #FD6D4C",
"M c #FD6E4C",
"N c #FD6F4C",
"B c #FD7C47",
"V c #FD7D47",
"C c #FD7E47",
"Z c #FD7F47",
"A c #FD704B",
"S c #FD714B",
"D c #FD724A",
"F c #FD734A",
"G c #FD7649",
"H c #FD7749",
"J c #FD744A",
"K c #FD754A",
"L c #FD7948",
"P c #FD7849",
"I c #FD7949",
"U c #FD7A48",
"Y c #FD7B48",
"T c #FD6050",
"R c #FD6150",
"E c #FD8345",
"W c #FD8046",
"Q c #FD8146",
"! c #FD8246",
"~ c #FD8346",
"^ c #FD8445",
"/ c #FD8545",
"( c #FD8644",
") c #FD8744",
"_ c #FD8A43",
"` c #FD8844",
"' c #FD8944",
"] c None",
/* pixels */
"]]]]]]]]]]]]]]]]]]]]]]]]]]]]]]]]]]]]]]]]]]]]]]]]]]]]]]]]]]]]]]]]",
"]]]]]],<23@#]]]]]]]]]]]]]]]]]]]]]]]]]]]]]]]]]]]]]]]]VCZW!~]]]]]]",
"]]]]:>,<23@#%=]]]]]]]]]]]]]]]]]]]]]]]]]]]]]]]]]]]]UYVCZW!~^/]]]]",
"]]]O:>,<23@#%=-]]]]]]]]]]]]]]]]]]]]]]]]]]]]]]]]]]LUYVCZW!~^/(]]]",
"]]oO:>,<23@#%=-&]]]]]]]]]]]]]]]]]]]]]]]]]]]]]]]]PIUYVCZW!~^/)`]]",
"] oO:>,]]]@#%=-&*]]]]]]]]]]]]]]]]]]]]]]]]]]]]]]GPIUYBC]]]E^/)`']",
"]XoO:>]]]]]]%=-&90]]]]]]]]]]]]]]]]]]]]]]]]]]]]KGPIUY]]]]]]^/)`']",
".XoO;]]]]]]]]=-&90]]]]]]]]]]]]]]]]]]]]]]]]]]]]KGPIU]]]]]]]]/)`'_",
".XoO]]]]]]]]]]-&90q]]]]]]]]]]]]]]]]]]]]]]]]]]JKGPI]]]]]]]]]])`'_",
".XoO]]]]]]]]]]]&90qw]]]]]]]]]]]]]]]]]]]]]]]]FJKGP]]]]]]]]]]])`'_",
".XoO]]]]]]]]]]]&90qw]]]]]]]]]]]]]]]]]]]]]]]]FJKGH]]]]]]]]]]])`'_",
".XoO]]]]]]]]]]]]90qw4]]]]]]]]]]]]]]]]]]]]]]SFJKG]]]]]]]]]]]])`'_",
".XoO;]]]]]]]]]]]]0qw56]]]]]]]]]]]]]]]]]]]]ASFJK]]]]]]]]]]]]/)`'_",
"]XoO:]]]]]]]]]]]]8qw567]]]]]]]]]]]]]]]]]]zASFJK]]]]]]]]]]]^/)`']",
"] oO:>]]]]]]]]]]]]qw567]]]]]]]]]]]]]]]]]]NASFF]]]]]]]]]]]]^/)`']",
"]]oO:>,]]]]]]]]]]]]w567r]]]]]]]]]]]]]]]]MNASD]]]]]]]]]]]]E^/)`]]",
"]]oO:>,<]]]]]]]]]]]]567rt]]]]]]]]]]]]]]nMNAS]]]]]]]]]]]]!~^/)`]]",
"]]]O:>,<]]]]]]]]]]]]567ryu]]]]]]]]]]]]bnMNAS]]]]]]]]]]]]!~^/(]]]",
"]]]]:>,<1]]]]]]]]]]]]67rye]]]]]]]]]]]]bnMNA]]]]]]]]]]]]W!~^/]]]]",
"]]]]]>,<23]]]]]]]]]]]]7ryei]]]]]]]]]]vbnMM]]]]]]]]]]]]ZW!~^]]]]]",
"]]]]]>,<23@]]]]]]]]]]]]ryeip]]]]]]]]xvbnM]]]]]]]]]]]]CZW!~^]]]]]",
"]]]]]],<23@]]]]]]]]]]]]ryeid]]]]]]]]xvbnm]]]]]]]]]]]]CZW!~]]]]]]",
"]]]]]]]<23@#]]]]]]]]]]]]yeids]]]]]]lxvbn]]]]]]]]]]]]VCZWQ]]]]]]]",
"]]]]]]]]23@#$]]]]]]]]]]]]eidsT]]]]klxvb]]]]]]]]]]]]YVCZW]]]]]]]]",
"]]]]]]]]23@#%=]]]]]]]]]]]]idsTR]]gklxv]]]]]]]]]]]]UYVCZW]]]]]]]]",
"]]]]]]]]]+@#%=]]]]]]]]]]]]idsTR]]jklxc]]]]]]]]]]]]UYVCZ]]]]]]]]]",
"]]]]]]]]]]@#%=-]]]]]]]]]]]]dsTRffjklx]]]]]]]]]]]]LUYVC]]]]]]]]]]",
"]]]]]]]]]]]#%=-&]]]]]]]]]]]]sTRffjkl]]]]]]]]]]]]PIUYV]]]]]]]]]]]",
"]]]]]]]]]]]#%=-&]]]]]]]]]]]]sTRffjkl]]]]]]]]]]]]PIUYB]]]]]]]]]]]",
"]]]]]]]]]]]]%=-&9]]]]]]]]]]]]TRffjk]]]]]]]]]]]]GPIUY]]]]]]]]]]]]",
"]]]]]]]]]+@#%=-&90]]]]]]]]]]]]Rffh]]]]]]]]]]]]KGPIUYVCZ]]]]]]]]]",
"]]]]]],<23@#%=-&90q]]]]]]]]]]]]ff]]]]]]]]]]]]JKGPIUYVCZW!~]]]]]]",
"]]]]]>,<23@#%=-&90q]]]]]]]]]]]]]]]]]]]]]]]]]]JKGPIUYVCZW!~^]]]]]",
"]]]O:>,<23@#%=-&90qw]]]]]]]]]]]]]]]]]]]]]]]]FJKGPIUYVCZW!~^/(]]]",
"]]]O:>,<13]]]=-&90qw4]]]]]]]]]]]]]]]]]]]]]]SFJKGPIU]]]ZW!~^/)]]]",
"]]oO:>,<]]]]]]-&90qw56]]]]]]]]]]]]]]]]]]]]ASFJKGPI]]]]]]!~^/)`]]",
"] oO:>]]]]]]]]-&90qw56]]]]]]]]]]]]]]]]]]]]ASFJKGPI]]]]]]]]^/)`']",
"]XoO:]]]]]]]]]-&90qw567]]]]]]]]]]]]]]]]]]zASFFKGPI]]]]]]]]]/)`']",
".XoO;]]]]]]]]]-&90]w567r]]]]]]]]]]]]]]]]MNASF]KGPI]]]]]]]]]/)`'_",
".XoO]]]]]]]]]]-&90]w567rt]]]]]]]]]]]]]]mMNASD]KGPI]]]]]]]]]])`'_",
".XoO]]]]]]]]]]-&90]]567ry]]]]]]]]]]]]]]nMNAS]]KGPI]]]]]]]]]])`'_",
".XoO]]]]]]]]]]-&90]]]67rye]]]]]]]]]]]]bnMNA]]]KGPI]]]]]]]]]])`'_",
".XoO]]]]]]]]]]-&90]]]]7ryei]]]]]]]]]]vbnMN]]]]KGPI]]]]]]]]]])`'_",
".XoO]]]]]]]]]]-&90]]]]7ryei]]]]]]]]]]vbnMM]]]]KGPI]]]]]]]]]])`'_",
".XoO]]]]]]]]]]-&90]]]]]ryeip]]]]]]]]xvbnm]]]]]KGPI]]]]]]]]]])`'_",
".XoO]]]]]]]]]]-&90]]]]]]yeida]]]]]]lxvbn]]]]]]KGPI]]]]]]]]]])`'_",
".XoO]]]]]]]]]]-&90]]]]]]]eidsTRffgklxvb]]]]]]]KGPI]]]]]]]]]])`'_",
".XoO]]]]]]]]]]-&90]]]]]]]eidsTRffjklxvb]]]]]]]KGPI]]]]]]]]]])`'_",
".XoO]]]]]]]]]]-&90]]]]]]]]idsTRffjklxc]]]]]]]]KGPI]]]]]]]]]])`'_",
".XoO]]]]]]]]]]-&90]]]]]]]]]]sTRffjkl]]]]]]]]]]KGPI]]]]]]]]]])`'_",
".XoO]]]]]]]]]]-&90]]]]]]]]]]]]]]]]]]]]]]]]]]]]KGPI]]]]]]]]]])`'_",
".XoO]]]]]]]]]]-&90]]]]]]]]]]]]]]]]]]]]]]]]]]]]KGPI]]]]]]]]]])`'_",
".XoO]]]]]]]]]]-&90]]]]]]]]]]]]]]]]]]]]]]]]]]]]KGPI]]]]]]]]]])`'_",
".XoO]]]]]]]]]]-&90]]]]]]]]]]]]]]]]]]]]]]]]]]]]KGPI]]]]]]]]]])`'_",
".XoO]]]]]]]]]]-&90]]]]]]]]]]]]]]]]]]]]]]]]]]]]KGPI]]]]]]]]]])`'_",
".XoO]]]]]]]]]=-&90]]]]]]]]]]]]]]]]]]]]]]]]]]]]KGPIU]]]]]]]]])`'_",
".XoO;]]]]]]]]=-&90]]]]]]]]]]]]]]]]]]]]]]]]]]]]KGPIU]]]]]]]]/)`'_",
"]XoO:>]]]]]]%=-&9]]]]]]]]]]]]]]]]]]]]]]]]]]]]]]GPIUY]]]]]]^/)`']",
"] oO:>,<]]@#%=-&*]]]]]]]]]]]]]]]]]]]]]]]]]]]]]]GPIUYBC]]!E^/)`']",
"]]oO:>,<23@#%=-&]]]]]]]]]]]]]]]]]]]]]]]]]]]]]]]]PIUYVCZW!~^/)`]]",
"]]]O:>,<23@#%=-]]]]]]]]]]]]]]]]]]]]]]]]]]]]]]]]]]LUYVCZW!~^/(]]]",
"]]]]:>,<23@#%=]]]]]]]]]]]]]]]]]]]]]]]]]]]]]]]]]]]]UYVCZW!~^/]]]]",
"]]]]]],<23@#]]]]]]]]]]]]]]]]]]]]]]]]]]]]]]]]]]]]]]]]VCZW!~]]]]]]",
"]]]]]]]]]]]]]]]]]]]]]]]]]]]]]]]]]]]]]]]]]]]]]]]]]]]]]]]]]]]]]]]]"
};
