/* XPM */
static char *_6254_5d839571ce9fa5f37ae2f25d46eb5de38b4aa7ea1abb55454b0a1ca401852c42[] = {
/* columns rows colors chars-per-pixel */
"16 16 41 1 ",
"  c #FD3D5A",
". c #FD3D5B",
"X c #FD4757",
"o c #FD4C56",
"O c #FD4D56",
"+ c #FD4E56",
"@ c #FD4159",
"# c #FD4259",
"$ c #FD4359",
"% c #FD4758",
"& c #FD5653",
"* c #FD5055",
"= c #FD5155",
"- c #FD5254",
"; c #FD5B51",
": c #FD5A52",
"> c #FD5B52",
", c #FD5C51",
"< c #FD654E",
"1 c #FD644F",
"2 c #FD654F",
"3 c #FD6F4B",
"4 c #FD6A4D",
"5 c #FD694E",
"6 c #FD6E4C",
"7 c #FD7D47",
"8 c #FD7E47",
"9 c #FD734A",
"0 c #FD744A",
"q c #FD754A",
"w c #FD7948",
"e c #FD7849",
"r c #FD7949",
"t c #FD6050",
"y c #FD6150",
"u c #FD8345",
"i c #FD8246",
"p c #FD8346",
"a c #FD8744",
"s c #FD8844",
"d c None",
/* pixels */
"d#%oddddddddw8pd",
" #Xoddddddddr8ua",
".ddd=dddddd0ddds",
" @dd-&dddd39ddua",
"d#ddd&:dd46dddpd",
"d$%ddd>dd4ddd8id",
"ddXodd,t<5ddw7dd",
"ddXo*ddy1ddqr7dd",
"d#%o=dddddd0r8pd",
" dd+=&dddd30edds",
".dd+*&:dd46qedds",
".dd+*d;t<4dqedds",
".dd+*ddt2ddqedds",
".ddO*ddddddqedds",
" #Xoddddddddr8ua",
"d#%oddddddddw8pd"
};
